<svg xmlns="http://www.w3.org/2000/svg" width="56" height="18" fill="none" xmlns:v="https://vecta.io/nano"><path d="M53.894 11.772c.373-.993.542-2.051.497-3.11a7.91 7.91 0 0 0-.756-3.057L51.387.855l-5.237.428c-1.057.085-2.086.382-3.025.873A7.91 7.91 0 0 0 40.68 4.14l-1.21.054c-.108.005-.213.037-.305.093s-.169.134-.223.228-.084.199-.086.307a.64.64 0 0 0 .072.311l.546 1.051c-.418 1.036-.611 2.15-.565 3.267s.33 2.211.832 3.209l2.24 4.485 5.005-.302a7.86 7.86 0 0 0 5.742-3.006l1.183-.053a.64.64 0 0 0 .305-.093c.092-.056.169-.135.223-.228s.084-.199.086-.307-.023-.215-.072-.311l-.559-1.073z" fill="#fff"/><path d="M49.489 10.529a1.79 1.79 0 0 0 .111-1.69l.458-.792-.794-.459a1.91 1.91 0 0 0-.941-1.413 1.91 1.91 0 0 0-.835-.252c-.294-.019-.588.031-.86.144l-.794-.458-.458.792c-.291.038-.57.143-.814.306s-.448.38-.594.635a1.91 1.91 0 0 0-.252.832c-.019.293.029.587.142.858l-.462.8.799.461c.039.29.144.568.307.811s.38.446.633.592.537.233.83.252.585-.028.856-.139l.798.461.462-.8c.294-.028.577-.129.823-.293s.447-.387.586-.648h0z" fill="#10b990"/><path d="M43.767 14.063l-.082-.153c-1.343-2.529-2.649-4.826-1.191-7.351l.032-.052-2.564-1.48.634 1.222a6.84 6.84 0 0 0 .119 5.878l1.934 3.873 1.117-1.935h.001z" fill="#234d69"/><path d="M50.931 11.361l-.029.054c-.32.566-.754 1.058-1.276 1.445s-1.118.662-1.751.805a18.35 18.35 0 0 1-3.934.394l-.173.006L42.65 16l4.321-.262c1.015-.06 2.004-.346 2.895-.836s1.661-1.174 2.254-2l1.375-.061-2.564-1.48z" fill="#173f58"/><path d="M49.1 4.829a4.83 4.83 0 0 1 1.831 6.532l2.564 1.481-.642-1.237a6.84 6.84 0 0 0-.123-5.603l-1.941-4.101-1.691 2.928h.001z" fill="#d65357"/><path d="M49.1 4.829l1.691-2.928-4.522.368a6.84 6.84 0 0 0-4.913 2.697l-1.392.062 2.564 1.48A4.83 4.83 0 0 1 49.1 4.829h0z" fill="#eb5e60"/><g fill="#404040"><path d="M7.165 7.797l1.308-1.308-1.316-1.386-.111.112-1.197 1.197 1.316 1.385zm4.559-2.07l-.289.097-1.39.447-.338.112.153.306a6.68 6.68 0 0 1 .389.88 5.42 5.42 0 0 1 .236.876 5.16 5.16 0 0 1 .077.868 3.01 3.01 0 0 1-.159 1.227 3 3 0 0 1-.64 1.059 3.54 3.54 0 0 1-2.47.735 7.13 7.13 0 0 1-.723-.034 5.66 5.66 0 0 1-.63-.097 3.33 3.33 0 0 1-.543-.164 2.47 2.47 0 0 1-.45-.236c-.131-.087-.253-.188-.362-.302s-.202-.236-.281-.369a2.15 2.15 0 0 1-.197-.44 3.27 3.27 0 0 1-.118-.507 3.95 3.95 0 0 1-.04-.582c.015-.892.209-1.772.57-2.587l.113-.276-.289-.112-1.277-.484-.295-.112-.118.276a8.09 8.09 0 0 0-.755 3.311 4.29 4.29 0 0 0 1.355 3.456c.911.783 2.239 1.174 3.985 1.174.708.009 1.414-.081 2.097-.268.589-.163 1.141-.437 1.627-.809.465-.363.847-.822 1.119-1.345a4.81 4.81 0 0 0 .402-1.089 5.15 5.15 0 0 0 .136-1.201 9 9 0 0 0-.779-3.542l-.115-.269zm15.469-.57l.087.088.08-.088 1.06-1.06.088-.08-.088-.087-1.06-1.06-.088-.088-.088.088-1.053 1.053-.087.088.087.088 1.062 1.059zm-1.197 2.002l.088.088.087-.088 1.053-1.053.04-.04.032-.032.032.032.032.032 1.06 1.06.088.088.079-.088 1.06-1.053.087-.088-.087-.087-1.06-1.06-.088-.087-.079.087-1.06 1.06-.04.04-.032.024-.024-.024-.04-.04-1.06-1.06-.088-.087-.08.087-1.06 1.06-.088.08.088.088 1.06 1.062zm7.846-.56l.112.112.112-.112 1.085-1.085.111-.112-.111-.112-1.093-1.093-.112-.112-.112.112-1.085 1.085-.111.112.111.112 1.093 1.093z"/><path d="M36.819 7.656l-.089-.269-.269.075-1.215.305-.29.067.074.291.142.682.09.634.03.585c0 .676-.162 1.108-.485 1.296-.138.075-.288.125-.444.149-.215.037-.434.055-.652.052h-.589c-.141.009-.282-.015-.413-.069s-.247-.138-.34-.244a1.91 1.91 0 0 1-.328-1.067l-.118-1.409-.03-.306-.306.037-1.23.142-.283.037.022.283.045.455.022.425.007.522a1.63 1.63 0 0 1-.177.924.63.63 0 0 1-.558.261 1.14 1.14 0 0 1-.481-.085.59.59 0 0 1-.28-.28 1.37 1.37 0 0 1-.127-.53l-.118-1.73-.023-.305-.313.03-1.223.149-.291.03.03.29.037.455.008.134.011.134.004.134a1.05 1.05 0 0 1 .008.127v.135c.004.155-.006.309-.03.462a1.09 1.09 0 0 1-.336.656c-.208.148-.461.219-.716.201-.263.023-.526-.051-.738-.209-.174-.188-.268-.437-.261-.694l-.118-1.73-.022-.305-.313.03-1.23.149-.283.03.022.29.044.455.03.664a2.54 2.54 0 0 1-.03.463c-.118.572-.61.857-1.476.857h-3.721c-.781 0-1.171-.527-1.171-1.581V3.442l-1.895.689v5.832c0 2.356.989 3.535 2.968 3.535h3.802a3.12 3.12 0 0 0 2.378-.812 2.38 2.38 0 0 0 1.998.812c.375.011.749-.058 1.096-.202s.659-.36.917-.633c.217.28.498.502.821.647s.675.21 1.028.188a2.22 2.22 0 0 0 1.812-.775 2.19 2.19 0 0 0 1.885.775h.574l.556-.022a4.02 4.02 0 0 0 .507-.074c.156-.034.311-.076.462-.127a3 3 0 0 0 .421-.177c.13-.067.255-.144.373-.231.776-.586 1.163-1.538 1.163-2.856a7.95 7.95 0 0 0-.377-2.354z"/></g></svg>